<?xml version="1.0" encoding="UTF-8"?><svg xmlns="http://www.w3.org/2000/svg" xmlns:xlink="http://www.w3.org/1999/xlink" width="75" zoomAndPan="magnify" viewBox="0 0 75 74.999997" height="74.999997" preserveAspectRatio="xMidYMid meet" version="1.0"><defs><clipPath id="clip-0"><path d="M 2.457031 16 L 27 16 L 27 59 L 2.457031 59 Z M 2.457031 16 " clip-rule="nonzero"/></clipPath><clipPath id="clip-1"><path d="M 71.335938 30.910156 L 38.113281 30.910156 L 38.113281 44.714844 L 57.234375 44.714844 C 55.453125 53.488281 48 58.523438 38.113281 58.523438 C 26.441406 58.523438 17.042969 49.101562 17.042969 37.40625 C 17.042969 25.710938 26.441406 16.289062 38.113281 16.289062 C 43.136719 16.289062 47.675781 18.078125 51.238281 21 L 61.613281 10.605469 C 55.292969 5.082031 47.1875 1.671875 38.113281 1.671875 C 18.339844 1.671875 2.457031 17.589844 2.457031 37.40625 C 2.457031 57.222656 18.339844 73.140625 38.113281 73.140625 C 55.941406 73.140625 72.144531 60.148438 72.144531 37.40625 C 72.144531 35.296875 71.820312 33.019531 71.335938 30.910156 Z M 71.335938 30.910156 " clip-rule="nonzero"/></clipPath><clipPath id="clip-2"><path d="M 2.457031 1.40625 L 72.144531 1.40625 L 72.144531 38 L 2.457031 38 Z M 2.457031 1.40625 " clip-rule="nonzero"/></clipPath><clipPath id="clip-3"><path d="M 71.335938 30.910156 L 38.113281 30.910156 L 38.113281 44.714844 L 57.234375 44.714844 C 55.453125 53.488281 48 58.523438 38.113281 58.523438 C 26.441406 58.523438 17.042969 49.101562 17.042969 37.40625 C 17.042969 25.710938 26.441406 16.289062 38.113281 16.289062 C 43.136719 16.289062 47.675781 18.078125 51.238281 21 L 61.613281 10.605469 C 55.292969 5.082031 47.1875 1.671875 38.113281 1.671875 C 18.339844 1.671875 2.457031 17.589844 2.457031 37.40625 C 2.457031 57.222656 18.339844 73.140625 38.113281 73.140625 C 55.941406 73.140625 72.144531 60.148438 72.144531 37.40625 C 72.144531 35.296875 71.820312 33.019531 71.335938 30.910156 Z M 71.335938 30.910156 " clip-rule="nonzero"/></clipPath><clipPath id="clip-4"><path d="M 2.457031 1.40625 L 72.144531 1.40625 L 72.144531 73.140625 L 2.457031 73.140625 Z M 2.457031 1.40625 " clip-rule="nonzero"/></clipPath><clipPath id="clip-5"><path d="M 71.335938 30.910156 L 38.113281 30.910156 L 38.113281 44.714844 L 57.234375 44.714844 C 55.453125 53.488281 48 58.523438 38.113281 58.523438 C 26.441406 58.523438 17.042969 49.101562 17.042969 37.40625 C 17.042969 25.710938 26.441406 16.289062 38.113281 16.289062 C 43.136719 16.289062 47.675781 18.078125 51.238281 21 L 61.613281 10.605469 C 55.292969 5.082031 47.1875 1.671875 38.113281 1.671875 C 18.339844 1.671875 2.457031 17.589844 2.457031 37.40625 C 2.457031 57.222656 18.339844 73.140625 38.113281 73.140625 C 55.941406 73.140625 72.144531 60.148438 72.144531 37.40625 C 72.144531 35.296875 71.820312 33.019531 71.335938 30.910156 Z M 71.335938 30.910156 " clip-rule="nonzero"/></clipPath><clipPath id="clip-6"><path d="M 20 16 L 72.144531 16 L 72.144531 73.140625 L 20 73.140625 Z M 20 16 " clip-rule="nonzero"/></clipPath><clipPath id="clip-7"><path d="M 71.335938 30.910156 L 38.113281 30.910156 L 38.113281 44.714844 L 57.234375 44.714844 C 55.453125 53.488281 48 58.523438 38.113281 58.523438 C 26.441406 58.523438 17.042969 49.101562 17.042969 37.40625 C 17.042969 25.710938 26.441406 16.289062 38.113281 16.289062 C 43.136719 16.289062 47.675781 18.078125 51.238281 21 L 61.613281 10.605469 C 55.292969 5.082031 47.1875 1.671875 38.113281 1.671875 C 18.339844 1.671875 2.457031 17.589844 2.457031 37.40625 C 2.457031 57.222656 18.339844 73.140625 38.113281 73.140625 C 55.941406 73.140625 72.144531 60.148438 72.144531 37.40625 C 72.144531 35.296875 71.820312 33.019531 71.335938 30.910156 Z M 71.335938 30.910156 " clip-rule="nonzero"/></clipPath></defs><g clip-path="url(#clip-0)"><g clip-path="url(#clip-1)"><path fill="rgb(98.429871%, 73.728943%, 1.959229%)" d="M -0.785156 58.523438 L -0.785156 16.289062 L 26.765625 37.40625 Z M -0.785156 58.523438 " fill-opacity="1" fill-rule="nonzero"/></g></g><g clip-path="url(#clip-2)"><g clip-path="url(#clip-3)"><path fill="rgb(91.758728%, 26.269531%, 20.779419%)" d="M -0.785156 16.289062 L 26.765625 37.40625 L 38.113281 27.5 L 77.007812 21.164062 L 77.007812 -1.578125 L -0.785156 -1.578125 Z M -0.785156 16.289062 " fill-opacity="1" fill-rule="nonzero"/></g></g><g clip-path="url(#clip-4)"><g clip-path="url(#clip-5)"><path fill="rgb(20.388794%, 65.879822%, 32.548523%)" d="M -0.785156 58.523438 L 47.835938 21.164062 L 60.640625 22.789062 L 77.007812 -1.578125 L 77.007812 76.390625 L -0.785156 76.390625 Z M -0.785156 58.523438 " fill-opacity="1" fill-rule="nonzero"/></g></g><g clip-path="url(#clip-6)"><g clip-path="url(#clip-7)"><path fill="rgb(25.878906%, 52.159119%, 95.689392%)" d="M 77.007812 76.390625 L 26.765625 37.40625 L 20.285156 32.535156 L 77.007812 16.289062 Z M 77.007812 76.390625 " fill-opacity="1" fill-rule="nonzero"/></g></g></svg>